<svg xmlns="http://www.w3.org/2000/svg" version="1.1" xmlns:xlink="http://www.w3.org/1999/xlink" xmlns:svgjs="http://svgjs.dev/svgjs" width="154.976px" height="78.625px"><svg width="154.976px" height="78.625px" viewBox="0 0 154.976 78.625" version="1.1" xmlns="http://www.w3.org/2000/svg" xmlns:xlink="http://www.w3.org/1999/xlink">
    <title>Fill 32</title>
    <g id="SvgjsG1003" stroke="none" stroke-width="1" fill="none" fill-rule="evenodd">
        <path d="M74.227,15.988 C74.227,15.988 70.52,8.741 77.492,0 C82.048,6.488 82.727,11.678 80.757,15.988 C86.042,11.757 90.074,12.002 92.173,13.318 C94.276,14.634 93.822,17.987 92.552,19.882 C91.277,21.781 89.37,21.806 88.612,21.298 C88.104,20.952 88.204,19.924 88.333,19.411 C88.454,18.903 88.499,17.604 86.138,17.35 C83.697,17.083 81.428,18.458 81.936,20.069 C82.448,21.681 84.897,24.98 84.897,24.98 C85.959,26.579 84.839,26.633 84.839,26.633 C81.099,26.491 79.928,23.797 79.928,23.797 L78.975,26.142 C78.975,26.142 82.127,50.034 92.876,52.233 C101.606,54.02 108.873,41.597 108.873,41.597 L108.627,39.16 C108.182,40.58 102.905,40.909 102.88,39.589 C102.863,38.269 104.692,37.378 104.692,37.378 C104.692,37.378 106.732,36.099 107.936,34.858 C109.144,33.617 107.369,31.935 106.112,31.285 C104.854,30.639 101.93,30.264 102.055,32.259 C102.176,34.325 100.314,34.029 99.765,33.596 C99.282,33.217 97.874,32.214 97.974,29.253 C98.145,24.267 102.468,24.567 104.325,25.45 C107.369,26.899 110.356,30.931 110.356,30.931 C110.356,30.931 109.568,23.872 118.073,17.812 C118.389,17.587 118.876,17.754 118.989,18.12 C122.133,28.49 116.907,33.5 116.907,33.5 C121.904,31.327 125.636,32.547 125.636,32.547 C125.636,32.547 130.508,33.842 128.847,38.227 C127.181,42.613 123.607,41.892 123.607,41.892 C121.459,41.597 122.529,39.885 122.529,39.885 C122.529,39.885 124.216,38.269 121.817,36.749 C119.418,35.229 116.869,36.482 116.669,37.336 C116.473,38.186 117.256,39.702 117.885,41.555 C118.627,43.741 118.21,44.32 117.91,44.733 C115.287,45.253 113.529,40.847 113.529,40.847 L111.776,42.725 C112.001,48.685 112.729,54.79 115.074,59.105 C117.419,63.419 124.461,62.791 124.461,62.791 C124.461,62.791 127.018,62.791 131.283,60.109 C135.543,57.435 135.41,55.981 135.41,55.981 C135.41,55.981 133.132,56.764 130.95,54.99 C128.763,53.216 131.133,52.929 131.133,52.929 C131.133,52.929 134.098,52.6 135.943,52.191 C137.797,51.792 137.443,49.963 137.443,49.963 C137.443,49.963 136.93,46.977 134.852,46.428 C133.215,45.994 132.541,47.161 132.541,47.161 C132.541,47.161 132.174,48.177 131.037,47.727 C129.409,47.09 129.75,44.358 129.75,44.358 C129.75,44.358 130.025,39.302 134.49,39.706 C140.624,40.26 140.633,50.234 140.633,50.234 C140.633,50.234 140.928,48.143 144.602,45.116 C148.85,41.53 154.976,41.855 154.976,41.855 C142.969,52.675 129.172,62.953 127.735,78.625 L27.245,78.625 C25.813,62.953 12.011,52.675 0,41.855 C0,41.855 6.322,41.255 10.566,44.845 C14.172,47.81 14.339,49.768 14.343,49.843 C14.335,49.68 13.773,40.193 20.494,39.706 C24.709,39.402 25.234,44.358 25.234,44.358 C25.234,44.358 25.659,47.36 23.943,47.727 C22.781,47.977 22.535,47.294 22.443,47.161 C22.294,46.952 21.756,45.899 20.124,46.428 C17.687,47.227 17.537,49.963 17.537,49.963 C17.537,49.963 17.221,51.654 19.033,52.191 C20.94,52.762 23.851,52.929 23.851,52.929 C23.851,52.929 26.221,53.216 24.034,54.99 C21.844,56.764 19.57,55.981 19.57,55.981 C19.57,55.981 19.437,57.435 23.701,60.109 C27.962,62.791 30.519,62.791 30.519,62.791 C30.519,62.791 37.561,63.419 39.91,59.105 C42.251,54.79 42.979,48.685 43.204,42.725 L41.451,40.847 C41.451,40.847 40.006,45.187 37.066,44.733 C37.066,44.733 36.682,43.658 37.42,41.476 C38.049,39.618 38.507,38.186 38.307,37.336 C38.111,36.482 35.666,35.4 33.159,36.749 C31.243,37.782 32.264,39.585 32.451,39.885 C32.676,40.247 33.047,41.613 31.373,41.892 C29.586,42.196 26.933,41.184 26.133,38.227 C24.713,33.48 29.34,32.547 29.34,32.547 C29.34,32.547 33.076,31.327 38.069,33.5 C38.069,33.5 32.851,28.49 35.995,18.12 C36.104,17.754 36.591,17.587 36.907,17.812 C45.412,23.872 44.629,30.931 44.629,30.931 C44.629,30.931 47.611,26.899 50.655,25.45 C52.512,24.567 56.585,24.421 57.273,28.89 C57.727,31.818 55.486,33.38 54.911,33.588 C54.341,33.796 52.75,34.725 52.929,32.259 C53.07,30.264 50.13,30.639 48.868,31.285 C47.611,31.935 45.832,33.617 47.04,34.858 C48.252,36.099 50.293,37.378 50.293,37.378 C50.293,37.378 52.096,38.536 52.096,39.589 C51.263,40.614 47.611,40.422 46.353,39.16 L46.29,41.655 C46.29,41.655 53.374,54.02 62.104,52.233 C72.857,50.034 76.005,26.142 76.005,26.142 L75.056,23.797 C75.056,23.797 73.877,26.491 70.141,26.633 C70.141,26.633 69.021,26.579 70.083,24.98 C70.083,24.98 72.532,21.681 73.044,20.069 C73.552,18.458 71.241,16.808 68.846,17.35 C66.447,17.891 66.547,18.849 66.593,19.186 C66.631,19.524 67.139,20.811 66.368,21.298 C65.594,21.785 63.286,21.918 62.012,20.024 C60.742,18.124 60.575,14.918 62.807,13.318 C64.819,11.873 68.942,11.757 74.227,15.988 L74.227,15.988 Z" id="SvgjsPath1002" fill="#EBA800"></path>
    </g>
</svg><style>@media (prefers-color-scheme: light) { :root { filter: none; } }
@media (prefers-color-scheme: dark) { :root { filter: none; } }
</style></svg>